<mxfile host="app.diagrams.net" modified="2023-12-17T00:38:26.580Z" agent="Mozilla/5.0 (Windows NT 10.0; Win64; x64) AppleWebKit/537.36 (KHTML, like Gecko) Chrome/120.0.0.0 Safari/537.36 Edg/120.0.0.0" version="22.1.11" etag="ht-39UL4mqecG__poLMT" type="github">
  <diagram name="Trang-1" id="iUiRBsldiwa9MTnrbCXM">
    <mxGraphModel>
      <root>
        <mxCell id="0" />
        <mxCell id="1" parent="0" />
      </root>
    </mxGraphModel>
  </diagram>
</mxfile>
